<?xml version="1.0" encoding="UTF-8"?>
<svg width="146px" height="30px" viewBox="0 0 146 30" version="1.1" xmlns="http://www.w3.org/2000/svg" xmlns:xlink="http://www.w3.org/1999/xlink">
    <title>3C717B3A-6935-43EF-BBBB-FA9699821A86</title>
    <g id="Desktop" stroke="none" stroke-width="1" fill="none" fill-rule="evenodd">
        <g id="Book-inspiration-—-V1-—Sign-in-Copy" transform="translate(-647.000000, -103.000000)">
            <g id="Nav-/-order-/-004" transform="translate(-3.000000, 79.000000)">
                <path d="M1444.5,0.5 L1444.5,73.5 L0.5,73.5 L0.5,0.5 L1444.5,0.5 Z" id="Rectangle" stroke="#DEDAD3" fill="#FFFFFF" fill-rule="nonzero"></path>
                <g id="Logo/Rhinov-Black" transform="translate(650.000000, 24.000000)" fill="#3D3C40">
                    <path d="M116.71756,7.73925637 C121.552677,7.73925637 125.473564,11.7903358 125.473564,16.7557181 C125.473564,21.7211004 121.552677,25.7473073 116.71756,25.7473073 C111.882443,25.7473073 107.937642,21.7211004 107.937642,16.7557181 C107.937642,11.7903358 111.882443,7.73925637 116.71756,7.73925637 Z M26.313126,5 L30.713108,6.48941813 L37.0257896,11.4591812 L38.2008797,14.1673751 L37.6634393,18.5597363 L36.2598872,19.176324 L36.2273566,20.2948925 L38.4587564,21.6622678 L35.6365709,22.0533005 L35.4725469,22.5286065 L37.3889857,23.318462 L40.0784314,21.7288366 L37.9555915,24.4343158 L34.4051443,25.6528555 L30.9057988,25.0637688 L28.9830035,22.3814234 L29.7214855,19.4116754 L31.1988235,16.3179962 L29.094804,20.0294434 L26.6846728,25.4599948 L24.2372748,25.4550376 L24.2372748,19.6327452 L27.205661,21.5659554 L27.205661,20.4381806 L18.3453721,14.5580537 L9.44382791,20.4783108 L9.44382791,21.4852231 L12.5201509,19.5520129 L12.5201509,25.4310775 L8.57746695,25.4228154 L5.01181388,19.9590977 L4,14.5580537 L8.43400824,8.61843977 L26.313126,5 Z M61.8710638,7.98625037 C64.5410933,7.98625037 66.7540079,10.2587841 66.7540079,13.0007481 C66.7540079,15.6687241 64.6131403,17.9906882 61.8710638,17.9906882 L65.5270636,25.5003133 L62.5924531,25.5003133 L58.8398798,17.9906882 L55.18388,17.9906882 L55.18388,25.5003133 L52.7299913,25.5003133 L52.7299913,17.9906882 L50.9018382,17.9906882 L50.9018382,15.4958756 L52.7299913,15.4958756 L52.7299913,7.98625037 L61.8710638,7.98625037 Z M72.2873367,7.98618741 L72.2873367,15.4958126 L81.4041892,15.4958126 L81.4041892,7.98618741 L83.8577712,7.98618741 L83.8577712,25.5002504 L81.4041892,25.5002504 L81.4041892,17.9906252 L72.2873367,17.9906252 L72.2873367,25.5002504 L69.8337547,25.5002504 L69.8337547,17.9906252 L68.0056015,17.9906252 L68.0056015,15.4958126 L69.8337547,15.4958126 L69.8337547,7.98618741 L72.2873367,7.98618741 Z M88.7655485,7.98637631 L88.7655485,25.5004393 L86.3358799,25.5004393 L86.3358799,7.98637631 L88.7655485,7.98637631 Z M105.892673,7.98618741 L105.892673,25.5002504 L93.6968101,14.2358126 L93.6968101,25.5002504 L91.2671415,25.5002504 L91.2671415,7.98618741 L103.439091,19.2506252 L103.439091,7.98618741 L105.892673,7.98618741 Z M127.363463,7.98618741 L133.208771,20.238916 L139.054078,7.98618741 L141.724108,7.98618741 L133.208771,25.5002504 L124.669214,7.98618741 L127.363463,7.98618741 Z M116.71756,10.234069 C113.229568,10.234069 110.415138,13.1737541 110.415138,16.7557181 C110.415138,20.3128096 113.229568,23.2276222 116.71756,23.2521799 C120.205552,23.2521799 123.068116,20.3373673 123.068116,16.7557181 C123.068116,13.1488816 120.205552,10.234069 116.71756,10.234069 Z M34.5024868,18.9003703 L32.9299252,21.168195 L34.0418236,22.6687079 L34.5024868,18.9003703 Z M61.8710638,10.481063 L55.18388,10.481063 L55.18388,15.4958756 L61.8710638,15.4958756 C63.242102,15.4958756 64.3004258,14.3347361 64.3004258,13.0007481 C64.3004258,11.5184693 63.0977015,10.481063 61.8710638,10.481063 Z" id="Combined-Shape"></path>
                </g>
            </g>
        </g>
    </g>
</svg>