<svg xmlns="http://www.w3.org/2000/svg" width="25" height="25" viewBox="0 0 25 25">
  <defs>
    <rect id="rect-1" width="25" height="25" x="0" y="0"/>
  </defs>
  <path fill="rgb(61,60,64)" fill-rule="evenodd" d="M12.5003125.0003125c-6.9046874 0-12.5 5.5953126-12.5 12.5 0 4.58906174 3.39374995 12.5 12.5 12.5 9.10625076 0 12.5-7.91093826 12.5-12.5 0-6.9046874-5.59687424-12.5-12.5-12.5zm7.40625 20.52499962c-1.71562576-2.02812386-4.39218712-3.33749962-7.40625-3.33749962-3.015625 0-5.6906252 1.30937576-7.40625 3.33749962-2.1656251-2-3.53125-4.8515625-3.53125-8.02499962 0-6.03125 4.90625-10.9375 10.9375-10.9375 6.02968788 0 10.9375 4.90625 10.9375 10.9375 0 3.17343712-1.36562538 6.02499962-3.53125 8.02499962zM12.4999997 6.25000017c-2.5890627 0-4.68749953 2.09843683-4.68749953 4.68749952 0 2.5890627 2.09843683 4.6875 4.68749952 4.6875 2.5890627 0 4.6875-2.0984373 4.6875-4.6875 0-2.58906269-2.0984373-4.68749952-4.6875-4.68749952zm-3.125 4.68749952c0 1.72343731 1.40156269 3.125 3.125 3.125 1.7234373 0 3.125-1.40156269 3.125-3.125 0-1.7234373-1.4015627-3.12499952-3.125-3.12499952-1.72343731 0-3.125 1.40156222-3.125 3.12499952zM6.3284375 21.52062576c1.7578125 1.20781136 3.8828125 1.91718674 6.171875 1.91718674s4.4140625-.70937538 6.171875-1.91718674c-1.4296875-1.67343902-3.65156364-2.77031326-6.171875-2.77031326-2.52187538 0-4.7421875 1.09687424-6.171875 2.77031326z"/>
</svg>
